# xmcd
#
# Track frame offsets:
#	150
#	14672
#	37663
#	51475
#	68462
#	84752
#	101736
#	117477
#	131729
#	147566
#	165169
#	183259
#	211403
#	226859
#
# Disc length: 3276 seconds
#
# Revision: 1
# Processed by: cddbd v1.5.2PL0 Copyright (c) Steve Scherf et al.
# Submitted via: audiograbber 1.83.01
#
DISCID=b70cca0e
DTITLE=San2 and His Soul Patrol - Hold On
DYEAR=2016
DGENRE=Blues
TTITLE0=Hold On To Me
TTITLE1=Just a Little Bit More
TTITLE2=Julie
TTITLE3=The Joker
TTITLE4=Solid Man
TTITLE5=So Beautiful
TTITLE6=Love Train
TTITLE7=Burnin' Flame
TTITLE8=To Be Somebody
TTITLE9=My Song
TTITLE10=Thank You It's You
TTITLE11=Anywhere The Wind Blows
TTITLE12=I'd Go On
TTITLE13=Back 2 Frisco
EXTD=
EXTT0=
EXTT1=
EXTT2=
EXTT3=
EXTT4=
EXTT5=
EXTT6=
EXTT7=
EXTT8=
EXTT9=
EXTT10=
EXTT11=
EXTT12=
EXTT13=
PLAYORDER=
